/* XPM */
static char *_7fc6e8260104dd288b1b50ac56273abZymplFBYiZmCg1wp[] = {
/* columns rows colors chars-per-pixel */
"64 64 11 1 ",
"  c None",
". c #211F30",
"X c #48475B",
"o c #62677A",
"O c #BA570B",
"+ c #CE8B16",
"@ c #E1CA33",
"# c #F7EC8A",
"$ c #AFBBC3",
"% c #D8E1E4",
"& c white",
/* pixels */
"                                                                ",
"                                                                ",
"                                                                ",
"                                                                ",
"                                                                ",
"                                                                ",
"                                                                ",
"                                                                ",
"                                                                ",
"                                                                ",
"                                                                ",
"                                                                ",
"                                                                ",
"                                                                ",
"                                                                ",
"                                                                ",
"                                                                ",
"                                                                ",
"                                                                ",
"                                                                ",
"                                                                ",
"                                                                ",
"                                                                ",
"                                                                ",
"                                                                ",
"                                                                ",
"                                                                ",
"                                                                ",
"                 ..                                             ",
"                 .#.                                            ",
"                 .##.                                           ",
"                 .#@#.                                          ",
"       ..........#@@@#.                                         ",
"      .@#########@@#@@#.                                        ",
"      .+@@@@@#@@@@@@@@@#.                                       ",
"      .+@+@@@@@@@@++@+@@.                                       ",
"      .O+++++++++@++@@+.                                        ",
"       ..........+@@@+.                                         ",
"             .+. .+@+.                                          ",
"             .+. .++.                                           ",
"             .@. .+.                                            ",
"             .+. ..                                             ",
"             .@.                                                ",
"             .@.                                                ",
"             .@.                                                ",
"             .@.                                                ",
"             .@.                                                ",
"             .@.                                                ",
"             .@.                                                ",
"             .@.                                                ",
"             .@.                                                ",
"             .@.                                                ",
"             .@.                                                ",
"             .+.                                                ",
"             .@.                                                ",
"             .+.                                                ",
"             .+.          ..................................    ",
"             .@.          .Xooo&&&&oooo&&&&oooo&&&&oooo&&&&.    ",
"             .+.          ..XXX%%%%XXXX%%%%XXXX%%%%XXXX%%%&.    ",
"             .+.          ..XXX%%%%XXXX%%%%XXXX%%%%XXXX%%%&.    ",
"            .....         ..XXX%%%%XXXX%%%%XXXX%%%%XXXX%%%&.    ",
"           .O++@@.        .$%%%XXXX%%%%XXXX%%%%XXXX%%%%XXXo.    ",
"           ..O++..        .$%%%XXXX%%%%XXXX%%%%XXXX%%%%XXXo.    ",
"          .OO++++@.       .$$$$....$$$$....$$$$....$$$$...X.    "
};
